# xmcd
#
# Track frame offsets:
#	150
#	17557
#	35887
#	54422
#	62705
#	74170
#	82852
#	93382
#	101965
#	112012
#	131767
#	138225
#	147097
#	166055
#	173077
#	186180
#	200560
#	213877
#	226175
#	238322
#	252775
#	265325
#	277787
#	289932
#	303027
#	314005
#
# Disc length: 4381 seconds
#
# Revision: 1
# Processed by: cddbd v1.5.2PL0 Copyright (c) Steve Scherf et al.
# Submitted via: audiograbber 1.83.01
#
DISCID=80111b1a
DTITLE=Sister Rosetta Tharpe - SISTER ROSETTA THARPE - From Blues To Gospel [CD
DTITLE=2)
DYEAR=1900
DGENRE=Blues
TTITLE0=Walking Up The King's Highway
TTITLE1=What Are They Doing In Heaven?
TTITLE2=Savior Don't Pass Me By
TTITLE3=I Saw The Light
TTITLE4=Nothing Between
TTITLE5=Shine For Jesus
TTITLE6=Never Alone
TTITLE7=The Family Prayer
TTITLE8=Blow Ye The Trumpet
TTITLE9=God Leads Us Along
TTITLE10=Oh The Joy Came To Me
TTITLE11=Seeking For You
TTITLE12=I Do, Don't You?
TTITLE13=He's The Lily Of The Valley
TTITLE14=God's Mighty Hand
TTITLE15=The Lord Followed Me
TTITLE16=Oh, When I Come To The End Of My Journey
TTITLE17=Stretch Out
TTITLE18=Beams Of Heaven
TTITLE19=My Journey To The Sky
TTITLE20=Teach Me To Be Right
TTITLE21=I Heard My Mother Call My Name
TTITLE22=Heaven Is Not My Home
TTITLE23=Ain't No Grave Hold My Body Down
TTITLE24=Lay Down Your Soul
TTITLE25=Were You There When They Crucified My Lord?
EXTD=
EXTT0=
EXTT1=
EXTT2=
EXTT3=
EXTT4=
EXTT5=
EXTT6=
EXTT7=
EXTT8=
EXTT9=
EXTT10=
EXTT11=
EXTT12=
EXTT13=
EXTT14=
EXTT15=
EXTT16=
EXTT17=
EXTT18=
EXTT19=
EXTT20=
EXTT21=
EXTT22=
EXTT23=
EXTT24=
EXTT25=
PLAYORDER=
